<?xml version="1.0" encoding="UTF-8"?>
<!DOCTYPE svg
PUBLIC "-//W3C//DTD SVG 1.1//EN"
       "http://www.w3.org/Graphics/SVG/1.1/DTD/svg11.dtd">
<svg viewBox="90 10 1517 850" width="1427px" height="840px" xmlns="http://www.w3.org/2000/svg" version="1.1">
   <line x1="1281" y1="403" x2="1271" y2="403" style="stroke:#c00;stroke-width:1;"/>
   <line x1="1178" y1="504" x2="1168" y2="504" style="stroke:#c00;stroke-width:1;"/>
   <line x1="1271" y1="403" x2="1178" y2="504" style="stroke:#c00;stroke-width:1;"/>
   <line x1="1273.5" y1="403" x2="1277.0355339059" y2="406.53553390593" style="stroke:#c00;stroke-width:2;"/>
   <line x1="1273.5" y1="403" x2="1277.0355339059" y2="399.46446609407" style="stroke:#c00;stroke-width:2;"/>
   <line x1="1173" y1="504" x2="1176.5355339059" y2="507.53553390593" style="stroke:#c00;stroke-width:2;"/>
   <line x1="1173" y1="504" x2="1176.5355339059" y2="500.46446609407" style="stroke:#c00;stroke-width:2;"/>
   <line x1="1168" y1="684" x2="1178" y2="684" style="stroke:#333;stroke-width:1;"/>
   <line x1="1307" y1="731" x2="1317" y2="731" style="stroke:#333;stroke-width:1;"/>
   <line x1="1178" y1="684" x2="1307" y2="731" style="stroke:#333;stroke-width:1;"/>
   <line x1="1175.5" y1="684" x2="1171.9644660941" y2="687.53553390593" style="stroke:#333;stroke-width:2;"/>
   <line x1="1175.5" y1="684" x2="1171.9644660941" y2="680.46446609407" style="stroke:#333;stroke-width:2;"/>
   <line x1="1312" y1="731" x2="1308.4644660941" y2="734.53553390593" style="stroke:#333;stroke-width:2;"/>
   <line x1="1312" y1="731" x2="1308.4644660941" y2="727.46446609407" style="stroke:#333;stroke-width:2;"/>
   <line x1="943" y1="524" x2="933" y2="524" style="stroke:#bbb;stroke-width:1;"/>
   <line x1="715" y1="664" x2="705" y2="664" style="stroke:#bbb;stroke-width:1;"/>
   <line x1="933" y1="524" x2="715" y2="664" style="stroke:#bbb;stroke-width:1;"/>
   <line x1="935.5" y1="524" x2="939.03553390593" y2="527.53553390593" style="stroke:#bbb;stroke-width:2;"/>
   <line x1="935.5" y1="524" x2="939.03553390593" y2="520.46446609407" style="stroke:#bbb;stroke-width:2;"/>
   <line x1="710" y1="664" x2="713.53553390593" y2="667.53553390593" style="stroke:#bbb;stroke-width:2;"/>
   <line x1="710" y1="664" x2="713.53553390593" y2="660.46446609407" style="stroke:#bbb;stroke-width:2;"/>
   <line x1="943" y1="704" x2="933" y2="704" style="stroke:#b0b;stroke-width:1;"/>
   <line x1="918" y1="805" x2="928" y2="805" style="stroke:#b0b;stroke-width:1;"/>
   <line x1="933" y1="704" x2="918" y2="805" style="stroke:#b0b;stroke-width:1;"/>
   <line x1="935.5" y1="704" x2="939.03553390593" y2="707.53553390593" style="stroke:#b0b;stroke-width:2;"/>
   <line x1="935.5" y1="704" x2="939.03553390593" y2="700.46446609407" style="stroke:#b0b;stroke-width:2;"/>
   <line x1="923" y1="805" x2="919.46446609407" y2="808.53553390593" style="stroke:#b0b;stroke-width:2;"/>
   <line x1="923" y1="805" x2="919.46446609407" y2="801.46446609407" style="stroke:#b0b;stroke-width:2;"/>
   <line x1="1168" y1="544" x2="1178" y2="544" style="stroke:#0bf;stroke-width:1;"/>
   <line x1="1291" y1="609" x2="1301" y2="609" style="stroke:#0bf;stroke-width:1;"/>
   <line x1="1178" y1="544" x2="1291" y2="609" style="stroke:#0bf;stroke-width:1;"/>
   <line x1="1175.5" y1="544" x2="1171.9644660941" y2="547.53553390593" style="stroke:#0bf;stroke-width:2;"/>
   <line x1="1175.5" y1="544" x2="1171.9644660941" y2="540.46446609407" style="stroke:#0bf;stroke-width:2;"/>
   <line x1="1296" y1="609" x2="1292.4644660941" y2="612.53553390593" style="stroke:#0bf;stroke-width:2;"/>
   <line x1="1296" y1="609" x2="1292.4644660941" y2="605.46446609407" style="stroke:#0bf;stroke-width:2;"/>
   <line x1="1277" y1="281" x2="1267" y2="281" style="stroke:#0bf;stroke-width:1;"/>
   <line x1="1178" y1="504" x2="1168" y2="504" style="stroke:#0bf;stroke-width:1;"/>
   <line x1="1267" y1="281" x2="1178" y2="504" style="stroke:#0bf;stroke-width:1;"/>
   <line x1="1269.5" y1="281" x2="1273.0355339059" y2="284.53553390593" style="stroke:#0bf;stroke-width:2;"/>
   <line x1="1269.5" y1="281" x2="1273.0355339059" y2="277.46446609407" style="stroke:#0bf;stroke-width:2;"/>
   <line x1="1173" y1="504" x2="1176.5355339059" y2="507.53553390593" style="stroke:#0bf;stroke-width:2;"/>
   <line x1="1173" y1="504" x2="1176.5355339059" y2="500.46446609407" style="stroke:#0bf;stroke-width:2;"/>
   <line x1="1291" y1="520" x2="1281" y2="520" style="stroke:#bbb;stroke-width:1;"/>
   <line x1="1291" y1="609" x2="1301" y2="609" style="stroke:#bbb;stroke-width:1;"/>
   <line x1="1281" y1="520" x2="1291" y2="609" style="stroke:#bbb;stroke-width:1;"/>
   <line x1="1283.5" y1="520" x2="1287.0355339059" y2="523.53553390593" style="stroke:#bbb;stroke-width:2;"/>
   <line x1="1283.5" y1="520" x2="1287.0355339059" y2="516.46446609407" style="stroke:#bbb;stroke-width:2;"/>
   <line x1="1296" y1="609" x2="1292.4644660941" y2="612.53553390593" style="stroke:#bbb;stroke-width:2;"/>
   <line x1="1296" y1="609" x2="1292.4644660941" y2="605.46446609407" style="stroke:#bbb;stroke-width:2;"/>
   <line x1="1291" y1="540" x2="1281" y2="540" style="stroke:#b0b;stroke-width:1;"/>
   <line x1="1291" y1="609" x2="1301" y2="609" style="stroke:#b0b;stroke-width:1;"/>
   <line x1="1281" y1="540" x2="1291" y2="609" style="stroke:#b0b;stroke-width:1;"/>
   <line x1="1283.5" y1="540" x2="1287.0355339059" y2="543.53553390593" style="stroke:#b0b;stroke-width:2;"/>
   <line x1="1283.5" y1="540" x2="1287.0355339059" y2="536.46446609407" style="stroke:#b0b;stroke-width:2;"/>
   <line x1="1296" y1="609" x2="1292.4644660941" y2="612.53553390593" style="stroke:#b0b;stroke-width:2;"/>
   <line x1="1296" y1="609" x2="1292.4644660941" y2="605.46446609407" style="stroke:#b0b;stroke-width:2;"/>
   <line x1="562" y1="446" x2="552" y2="446" style="stroke:#333;stroke-width:1;"/>
   <line x1="558" y1="664" x2="568" y2="664" style="stroke:#333;stroke-width:1;"/>
   <line x1="552" y1="446" x2="558" y2="664" style="stroke:#333;stroke-width:1;"/>
   <line x1="554.5" y1="446" x2="558.03553390593" y2="449.53553390593" style="stroke:#333;stroke-width:2;"/>
   <line x1="554.5" y1="446" x2="558.03553390593" y2="442.46446609407" style="stroke:#333;stroke-width:2;"/>
   <line x1="563" y1="664" x2="559.46446609407" y2="667.53553390593" style="stroke:#333;stroke-width:2;"/>
   <line x1="563" y1="664" x2="559.46446609407" y2="660.46446609407" style="stroke:#333;stroke-width:2;"/>
   <line x1="562" y1="366" x2="552" y2="366" style="stroke:#0bf;stroke-width:1;"/>
   <line x1="378" y1="556" x2="368" y2="556" style="stroke:#0bf;stroke-width:1;"/>
   <line x1="552" y1="366" x2="378" y2="556" style="stroke:#0bf;stroke-width:1;"/>
   <line x1="554.5" y1="366" x2="558.03553390593" y2="369.53553390593" style="stroke:#0bf;stroke-width:2;"/>
   <line x1="554.5" y1="366" x2="558.03553390593" y2="362.46446609407" style="stroke:#0bf;stroke-width:2;"/>
   <line x1="373" y1="556" x2="376.53553390593" y2="559.53553390593" style="stroke:#0bf;stroke-width:2;"/>
   <line x1="373" y1="556" x2="376.53553390593" y2="552.46446609407" style="stroke:#0bf;stroke-width:2;"/>
   <line x1="408" y1="225" x2="418" y2="225" style="stroke:#0b0;stroke-width:1;"/>
   <line x1="552" y1="326" x2="562" y2="326" style="stroke:#0b0;stroke-width:1;"/>
   <line x1="418" y1="225" x2="552" y2="326" style="stroke:#0b0;stroke-width:1;"/>
   <line x1="415.5" y1="225" x2="411.96446609407" y2="228.53553390593" style="stroke:#0b0;stroke-width:2;"/>
   <line x1="415.5" y1="225" x2="411.96446609407" y2="221.46446609407" style="stroke:#0b0;stroke-width:2;"/>
   <line x1="557" y1="326" x2="553.46446609407" y2="329.53553390593" style="stroke:#0b0;stroke-width:2;"/>
   <line x1="557" y1="326" x2="553.46446609407" y2="322.46446609407" style="stroke:#0b0;stroke-width:2;"/>
   <line x1="990" y1="160" x2="1000" y2="160" style="stroke:#bbb;stroke-width:1;"/>
   <line x1="933" y1="504" x2="943" y2="504" style="stroke:#bbb;stroke-width:1;"/>
   <line x1="1000" y1="160" x2="933" y2="504" style="stroke:#bbb;stroke-width:1;"/>
   <line x1="997.5" y1="160" x2="993.96446609407" y2="163.53553390593" style="stroke:#bbb;stroke-width:2;"/>
   <line x1="997.5" y1="160" x2="993.96446609407" y2="156.46446609407" style="stroke:#bbb;stroke-width:2;"/>
   <line x1="938" y1="504" x2="934.46446609407" y2="507.53553390593" style="stroke:#bbb;stroke-width:2;"/>
   <line x1="938" y1="504" x2="934.46446609407" y2="500.46446609407" style="stroke:#bbb;stroke-width:2;"/>
   <line x1="734" y1="180" x2="724" y2="180" style="stroke:#333;stroke-width:1;"/>
   <line x1="418" y1="165" x2="408" y2="165" style="stroke:#333;stroke-width:1;"/>
   <line x1="724" y1="180" x2="418" y2="165" style="stroke:#333;stroke-width:1;"/>
   <line x1="726.5" y1="180" x2="730.03553390593" y2="183.53553390593" style="stroke:#333;stroke-width:2;"/>
   <line x1="726.5" y1="180" x2="730.03553390593" y2="176.46446609407" style="stroke:#333;stroke-width:2;"/>
   <line x1="413" y1="165" x2="416.53553390593" y2="168.53553390593" style="stroke:#333;stroke-width:2;"/>
   <line x1="413" y1="165" x2="416.53553390593" y2="161.46446609407" style="stroke:#333;stroke-width:2;"/>
   <line x1="306" y1="432" x2="316" y2="432" style="stroke:#c00;stroke-width:1;"/>
   <line x1="552" y1="326" x2="562" y2="326" style="stroke:#c00;stroke-width:1;"/>
   <line x1="316" y1="432" x2="552" y2="326" style="stroke:#c00;stroke-width:1;"/>
   <line x1="313.5" y1="432" x2="309.96446609407" y2="435.53553390593" style="stroke:#c00;stroke-width:2;"/>
   <line x1="313.5" y1="432" x2="309.96446609407" y2="428.46446609407" style="stroke:#c00;stroke-width:2;"/>
   <line x1="557" y1="326" x2="553.46446609407" y2="329.53553390593" style="stroke:#c00;stroke-width:2;"/>
   <line x1="557" y1="326" x2="553.46446609407" y2="322.46446609407" style="stroke:#c00;stroke-width:2;"/>
   <line x1="313" y1="724" x2="323" y2="724" style="stroke:#333;stroke-width:1;"/>
   <line x1="378" y1="556" x2="368" y2="556" style="stroke:#333;stroke-width:1;"/>
   <line x1="323" y1="724" x2="378" y2="556" style="stroke:#333;stroke-width:1;"/>
   <line x1="320.5" y1="724" x2="316.96446609407" y2="727.53553390593" style="stroke:#333;stroke-width:2;"/>
   <line x1="320.5" y1="724" x2="316.96446609407" y2="720.46446609407" style="stroke:#333;stroke-width:2;"/>
   <line x1="373" y1="556" x2="376.53553390593" y2="559.53553390593" style="stroke:#333;stroke-width:2;"/>
   <line x1="373" y1="556" x2="376.53553390593" y2="552.46446609407" style="stroke:#333;stroke-width:2;"/>
   <line x1="313" y1="744" x2="323" y2="744" style="stroke:#0bf;stroke-width:1;"/>
   <line x1="378" y1="556" x2="368" y2="556" style="stroke:#0bf;stroke-width:1;"/>
   <line x1="323" y1="744" x2="378" y2="556" style="stroke:#0bf;stroke-width:1;"/>
   <line x1="320.5" y1="744" x2="316.96446609407" y2="747.53553390593" style="stroke:#0bf;stroke-width:2;"/>
   <line x1="320.5" y1="744" x2="316.96446609407" y2="740.46446609407" style="stroke:#0bf;stroke-width:2;"/>
   <line x1="373" y1="556" x2="376.53553390593" y2="559.53553390593" style="stroke:#0bf;stroke-width:2;"/>
   <line x1="373" y1="556" x2="376.53553390593" y2="552.46446609407" style="stroke:#0bf;stroke-width:2;"/>
   <rect width="131" height="20" x="1281" y="313" style="fill:#007;stroke:black;"/>
   <text width="131" height="20" x="1286" y="327" style="fill:#fff;" font-family="Arial" font-size="16px"> sqms_answer</text>
   <rect width="131" height="20" x="1281" y="333" style="fill:#aea;stroke:black;"/>
   <text width="131" height="20" x="1286" y="347" style="fill:black;" font-family="Arial" font-size="16px">sqms_answer_id</text>
   <rect width="131" height="20" x="1281" y="353" style="fill:none;stroke:black;"/>
   <text width="131" height="20" x="1286" y="367" style="fill:black;" font-family="Arial" font-size="16px">answer</text>
   <rect width="131" height="20" x="1281" y="373" style="fill:none;stroke:black;"/>
   <text width="131" height="20" x="1286" y="387" style="fill:black;" font-family="Arial" font-size="16px">correct</text>
   <rect width="131" height="20" x="1281" y="393" style="fill:#aea;stroke:black;"/>
   <text width="131" height="20" x="1286" y="407" style="fill:black;" font-family="Arial" font-size="16px">sqms_question_id</text>
   <rect width="131" height="20" x="1338" y="25" style="fill:#007;stroke:black;"/>
   <text width="131" height="20" x="1343" y="39" style="fill:#fff;" font-family="Arial" font-size="16px"> sqms_history</text>
   <rect width="131" height="20" x="1338" y="45" style="fill:#aea;stroke:black;"/>
   <text width="131" height="20" x="1343" y="59" style="fill:black;" font-family="Arial" font-size="16px">sqms_history_id</text>
   <rect width="131" height="20" x="1338" y="65" style="fill:#aea;stroke:black;"/>
   <text width="131" height="20" x="1343" y="79" style="fill:black;" font-family="Arial" font-size="16px">sqms_users_login</text>
   <rect width="131" height="20" x="1338" y="85" style="fill:none;stroke:black;"/>
   <text width="131" height="20" x="1343" y="99" style="fill:black;" font-family="Arial" font-size="16px">timestamp</text>
   <rect width="131" height="20" x="1338" y="105" style="fill:none;stroke:black;"/>
   <text width="131" height="20" x="1343" y="119" style="fill:black;" font-family="Arial" font-size="16px">table_name</text>
   <rect width="131" height="20" x="1338" y="125" style="fill:none;stroke:black;"/>
   <text width="131" height="20" x="1343" y="139" style="fill:black;" font-family="Arial" font-size="16px">column_name</text>
   <rect width="131" height="20" x="1338" y="145" style="fill:none;stroke:black;"/>
   <text width="131" height="20" x="1343" y="159" style="fill:black;" font-family="Arial" font-size="16px">value_OLD</text>
   <rect width="131" height="20" x="1338" y="165" style="fill:none;stroke:black;"/>
   <text width="131" height="20" x="1343" y="179" style="fill:black;" font-family="Arial" font-size="16px">value_NEW</text>
   <rect width="137" height="20" x="568" y="634" style="fill:#007;stroke:black;"/>
   <text width="137" height="20" x="573" y="648" style="fill:#fff;" font-family="Arial" font-size="16px"> sqms_language</text>
   <rect width="137" height="20" x="568" y="654" style="fill:#aea;stroke:black;"/>
   <text width="137" height="20" x="573" y="668" style="fill:black;" font-family="Arial" font-size="16px">sqms_language_id</text>
   <rect width="137" height="20" x="568" y="674" style="fill:none;stroke:black;"/>
   <text width="137" height="20" x="573" y="688" style="fill:black;" font-family="Arial" font-size="16px">language</text>
   <rect width="137" height="20" x="568" y="694" style="fill:none;stroke:black;"/>
   <text width="137" height="20" x="573" y="708" style="fill:black;" font-family="Arial" font-size="16px">language_short</text>
   <rect width="225" height="20" x="943" y="474" style="fill:#007;stroke:black;"/>
   <text width="225" height="20" x="948" y="488" style="fill:#fff;" font-family="Arial" font-size="16px"> sqms_question</text>
   <rect width="225" height="20" x="943" y="494" style="fill:#aea;stroke:black;"/>
   <text width="225" height="20" x="948" y="508" style="fill:black;" font-family="Arial" font-size="16px">sqms_question_id</text>
   <rect width="225" height="20" x="943" y="514" style="fill:none;stroke:black;"/>
   <text width="225" height="20" x="948" y="528" style="fill:black;" font-family="Arial" font-size="16px">sqms_language_id</text>
   <rect width="225" height="20" x="943" y="534" style="fill:none;stroke:black;"/>
   <text width="225" height="20" x="948" y="548" style="fill:black;" font-family="Arial" font-size="16px">sqms_question_state_id</text>
   <rect width="225" height="20" x="943" y="554" style="fill:none;stroke:black;"/>
   <text width="225" height="20" x="948" y="568" style="fill:black;" font-family="Arial" font-size="16px">question</text>
   <rect width="225" height="20" x="943" y="574" style="fill:none;stroke:black;"/>
   <text width="225" height="20" x="948" y="588" style="fill:black;" font-family="Arial" font-size="16px">author</text>
   <rect width="225" height="20" x="943" y="594" style="fill:none;stroke:black;"/>
   <text width="225" height="20" x="948" y="608" style="fill:black;" font-family="Arial" font-size="16px">version</text>
   <rect width="225" height="20" x="943" y="614" style="fill:none;stroke:black;"/>
   <text width="225" height="20" x="948" y="628" style="fill:black;" font-family="Arial" font-size="16px">id_external</text>
   <rect width="225" height="20" x="943" y="634" style="fill:none;stroke:black;"/>
   <text width="225" height="20" x="948" y="648" style="fill:black;" font-family="Arial" font-size="16px">sqms_question_id_predecessor</text>
   <rect width="225" height="20" x="943" y="654" style="fill:none;stroke:black;"/>
   <text width="225" height="20" x="948" y="668" style="fill:black;" font-family="Arial" font-size="16px">sqms_question_id_successor</text>
   <rect width="225" height="20" x="943" y="674" style="fill:none;stroke:black;"/>
   <text width="225" height="20" x="948" y="688" style="fill:black;" font-family="Arial" font-size="16px">sqms_question_type_id</text>
   <rect width="225" height="20" x="943" y="694" style="fill:none;stroke:black;"/>
   <text width="225" height="20" x="948" y="708" style="fill:black;" font-family="Arial" font-size="16px">sqms_topic_id</text>
   <rect width="180" height="20" x="1277" y="231" style="fill:#007;stroke:black;"/>
   <text width="180" height="20" x="1282" y="245" style="fill:#fff;" font-family="Arial" font-size="16px"> sqms_question_reviewer</text>
   <rect width="180" height="20" x="1277" y="251" style="fill:#aea;stroke:black;"/>
   <text width="180" height="20" x="1282" y="265" style="fill:black;" font-family="Arial" font-size="16px">sqms_users_login</text>
   <rect width="180" height="20" x="1277" y="271" style="fill:#aea;stroke:black;"/>
   <text width="180" height="20" x="1282" y="285" style="fill:black;" font-family="Arial" font-size="16px">sqms_question_id</text>
   <rect width="171" height="20" x="1301" y="579" style="fill:#007;stroke:black;"/>
   <text width="171" height="20" x="1306" y="593" style="fill:#fff;" font-family="Arial" font-size="16px"> sqms_question_state</text>
   <rect width="171" height="20" x="1301" y="599" style="fill:#aea;stroke:black;"/>
   <text width="171" height="20" x="1306" y="613" style="fill:black;" font-family="Arial" font-size="16px">sqms_question_state_id</text>
   <rect width="171" height="20" x="1301" y="619" style="fill:none;stroke:black;"/>
   <text width="171" height="20" x="1306" y="633" style="fill:black;" font-family="Arial" font-size="16px">name</text>
   <rect width="211" height="20" x="1291" y="470" style="fill:#007;stroke:black;"/>
   <text width="211" height="20" x="1296" y="484" style="fill:#fff;" font-family="Arial" font-size="16px"> sqms_question_state_rules</text>
   <rect width="211" height="20" x="1291" y="490" style="fill:#aea;stroke:black;"/>
   <text width="211" height="20" x="1296" y="504" style="fill:black;" font-family="Arial" font-size="16px">sqms_question_state_rules_id</text>
   <rect width="211" height="20" x="1291" y="510" style="fill:#aea;stroke:black;"/>
   <text width="211" height="20" x="1296" y="524" style="fill:black;" font-family="Arial" font-size="16px">sqms_state_id_FROM</text>
   <rect width="211" height="20" x="1291" y="530" style="fill:#aea;stroke:black;"/>
   <text width="211" height="20" x="1296" y="544" style="fill:black;" font-family="Arial" font-size="16px">sqms_state_id_TO</text>
   <rect width="166" height="20" x="1317" y="701" style="fill:#007;stroke:black;"/>
   <text width="166" height="20" x="1322" y="715" style="fill:#fff;" font-family="Arial" font-size="16px"> sqms_question_type</text>
   <rect width="166" height="20" x="1317" y="721" style="fill:#aea;stroke:black;"/>
   <text width="166" height="20" x="1322" y="735" style="fill:black;" font-family="Arial" font-size="16px">sqms_question_type_id</text>
   <rect width="166" height="20" x="1317" y="741" style="fill:none;stroke:black;"/>
   <text width="166" height="20" x="1322" y="755" style="fill:black;" font-family="Arial" font-size="16px">name</text>
   <rect width="166" height="20" x="1317" y="761" style="fill:none;stroke:black;"/>
   <text width="166" height="20" x="1322" y="775" style="fill:black;" font-family="Arial" font-size="16px">description</text>
   <rect width="222" height="20" x="562" y="296" style="fill:#007;stroke:black;"/>
   <text width="222" height="20" x="567" y="310" style="fill:#fff;" font-family="Arial" font-size="16px"> sqms_syllabus</text>
   <rect width="222" height="20" x="562" y="316" style="fill:#aea;stroke:black;"/>
   <text width="222" height="20" x="567" y="330" style="fill:black;" font-family="Arial" font-size="16px">sqms_syllabus_id</text>
   <rect width="222" height="20" x="562" y="336" style="fill:none;stroke:black;"/>
   <text width="222" height="20" x="567" y="350" style="fill:black;" font-family="Arial" font-size="16px">name</text>
   <rect width="222" height="20" x="562" y="356" style="fill:none;stroke:black;"/>
   <text width="222" height="20" x="567" y="370" style="fill:black;" font-family="Arial" font-size="16px">sqms_state_id</text>
   <rect width="222" height="20" x="562" y="376" style="fill:none;stroke:black;"/>
   <text width="222" height="20" x="567" y="390" style="fill:black;" font-family="Arial" font-size="16px">version</text>
   <rect width="222" height="20" x="562" y="396" style="fill:none;stroke:black;"/>
   <text width="222" height="20" x="567" y="410" style="fill:black;" font-family="Arial" font-size="16px">sqms_topic_id</text>
   <rect width="222" height="20" x="562" y="416" style="fill:none;stroke:black;"/>
   <text width="222" height="20" x="567" y="430" style="fill:black;" font-family="Arial" font-size="16px">owner</text>
   <rect width="222" height="20" x="562" y="436" style="fill:none;stroke:black;"/>
   <text width="222" height="20" x="567" y="450" style="fill:black;" font-family="Arial" font-size="16px">sqms_language_id</text>
   <rect width="222" height="20" x="562" y="456" style="fill:none;stroke:black;"/>
   <text width="222" height="20" x="567" y="470" style="fill:black;" font-family="Arial" font-size="16px">sqms_syllabus_id_predecessor</text>
   <rect width="222" height="20" x="562" y="476" style="fill:none;stroke:black;"/>
   <text width="222" height="20" x="567" y="490" style="fill:black;" font-family="Arial" font-size="16px">sqms_syllabus_id_successor</text>
   <rect width="222" height="20" x="562" y="496" style="fill:none;stroke:black;"/>
   <text width="222" height="20" x="567" y="510" style="fill:black;" font-family="Arial" font-size="16px">validity_period_from</text>
   <rect width="222" height="20" x="562" y="516" style="fill:none;stroke:black;"/>
   <text width="222" height="20" x="567" y="530" style="fill:black;" font-family="Arial" font-size="16px">validity_period_to</text>
   <rect width="222" height="20" x="562" y="536" style="fill:none;stroke:black;"/>
   <text width="222" height="20" x="567" y="550" style="fill:black;" font-family="Arial" font-size="16px">description</text>
   <rect width="284" height="20" x="124" y="135" style="fill:#007;stroke:black;"/>
   <text width="284" height="20" x="129" y="149" style="fill:#fff;" font-family="Arial" font-size="16px"> sqms_syllabus_element</text>
   <rect width="284" height="20" x="124" y="155" style="fill:#aea;stroke:black;"/>
   <text width="284" height="20" x="129" y="169" style="fill:black;" font-family="Arial" font-size="16px">sqms_syllabus_element_id</text>
   <rect width="284" height="20" x="124" y="175" style="fill:none;stroke:black;"/>
   <text width="284" height="20" x="129" y="189" style="fill:black;" font-family="Arial" font-size="16px">element_order</text>
   <rect width="284" height="20" x="124" y="195" style="fill:none;stroke:black;"/>
   <text width="284" height="20" x="129" y="209" style="fill:black;" font-family="Arial" font-size="16px">severity</text>
   <rect width="284" height="20" x="124" y="215" style="fill:none;stroke:black;"/>
   <text width="284" height="20" x="129" y="229" style="fill:black;" font-family="Arial" font-size="16px">sqms_syllabus_id</text>
   <rect width="284" height="20" x="124" y="235" style="fill:none;stroke:black;"/>
   <text width="284" height="20" x="129" y="249" style="fill:black;" font-family="Arial" font-size="16px">name</text>
   <rect width="284" height="20" x="124" y="255" style="fill:none;stroke:black;"/>
   <text width="284" height="20" x="129" y="269" style="fill:black;" font-family="Arial" font-size="16px">description</text>
   <rect width="284" height="20" x="124" y="275" style="fill:none;stroke:black;"/>
   <text width="284" height="20" x="129" y="289" style="fill:black;" font-family="Arial" font-size="16px">sqms_syllabus_element_id_predecessor</text>
   <rect width="284" height="20" x="124" y="295" style="fill:none;stroke:black;"/>
   <text width="284" height="20" x="129" y="309" style="fill:black;" font-family="Arial" font-size="16px">sqms_syllabus_element_id_successor</text>
   <rect width="256" height="20" x="734" y="110" style="fill:#007;stroke:black;"/>
   <text width="256" height="20" x="739" y="124" style="fill:#fff;" font-family="Arial" font-size="16px"> sqms_syllabus_element_question</text>
   <rect width="256" height="20" x="734" y="130" style="fill:none;stroke:black;"/>
   <text width="256" height="20" x="739" y="144" style="fill:black;" font-family="Arial" font-size="16px">sqms_syllabus_element_question_id</text>
   <rect width="256" height="20" x="734" y="150" style="fill:#aea;stroke:black;"/>
   <text width="256" height="20" x="739" y="164" style="fill:black;" font-family="Arial" font-size="16px">sqms_question_id</text>
   <rect width="256" height="20" x="734" y="170" style="fill:#aea;stroke:black;"/>
   <text width="256" height="20" x="739" y="184" style="fill:black;" font-family="Arial" font-size="16px">sqms_syllabus_element_id</text>
   <rect width="173" height="20" x="133" y="382" style="fill:#007;stroke:black;"/>
   <text width="173" height="20" x="138" y="396" style="fill:#fff;" font-family="Arial" font-size="16px"> sqms_syllabus_reviewer</text>
   <rect width="173" height="20" x="133" y="402" style="fill:#aea;stroke:black;"/>
   <text width="173" height="20" x="138" y="416" style="fill:black;" font-family="Arial" font-size="16px">sqms_users_login</text>
   <rect width="173" height="20" x="133" y="422" style="fill:#aea;stroke:black;"/>
   <text width="173" height="20" x="138" y="436" style="fill:black;" font-family="Arial" font-size="16px">sqms_syllabus_id</text>
   <rect width="168" height="20" x="200" y="526" style="fill:#007;stroke:black;"/>
   <text width="168" height="20" x="205" y="540" style="fill:#fff;" font-family="Arial" font-size="16px"> sqms_syllabus_state</text>
   <rect width="168" height="20" x="200" y="546" style="fill:#aea;stroke:black;"/>
   <text width="168" height="20" x="205" y="560" style="fill:black;" font-family="Arial" font-size="16px">sqms_syllabus_state_id</text>
   <rect width="168" height="20" x="200" y="566" style="fill:none;stroke:black;"/>
   <text width="168" height="20" x="205" y="580" style="fill:black;" font-family="Arial" font-size="16px">name</text>
   <rect width="168" height="20" x="200" y="586" style="fill:none;stroke:black;"/>
   <text width="168" height="20" x="205" y="600" style="fill:black;" font-family="Arial" font-size="16px">value</text>
   <rect width="208" height="20" x="105" y="674" style="fill:#007;stroke:black;"/>
   <text width="208" height="20" x="110" y="688" style="fill:#fff;" font-family="Arial" font-size="16px"> sqms_syllabus_state_rules</text>
   <rect width="208" height="20" x="105" y="694" style="fill:#aea;stroke:black;"/>
   <text width="208" height="20" x="110" y="708" style="fill:black;" font-family="Arial" font-size="16px">sqms_syllabus_state_rules_id</text>
   <rect width="208" height="20" x="105" y="714" style="fill:#aea;stroke:black;"/>
   <text width="208" height="20" x="110" y="728" style="fill:black;" font-family="Arial" font-size="16px">sqms_state_id_FROM</text>
   <rect width="208" height="20" x="105" y="734" style="fill:#aea;stroke:black;"/>
   <text width="208" height="20" x="110" y="748" style="fill:black;" font-family="Arial" font-size="16px">sqms_state_id_TO</text>
   <rect width="104" height="20" x="928" y="775" style="fill:#007;stroke:black;"/>
   <text width="104" height="20" x="933" y="789" style="fill:#fff;" font-family="Arial" font-size="16px"> sqms_topic</text>
   <rect width="104" height="20" x="928" y="795" style="fill:#aea;stroke:black;"/>
   <text width="104" height="20" x="933" y="809" style="fill:black;" font-family="Arial" font-size="16px">sqms_topic_id</text>
   <rect width="104" height="20" x="928" y="815" style="fill:none;stroke:black;"/>
   <text width="104" height="20" x="933" y="829" style="fill:black;" font-family="Arial" font-size="16px">name</text>
</svg>
