<?xml version="1.0" encoding="UTF-8" standalone="no"?>
<!DOCTYPE svg PUBLIC "-//W3C//DTD SVG 1.1//EN"
 "http://www.w3.org/Graphics/SVG/1.1/DTD/svg11.dtd">
<!-- Generated by graphviz version 2.38.0 (20140413.2041)
 -->
<!-- Title: test Pages: 1 -->
<svg width="1345pt" height="754pt"
 viewBox="0.00 0.00 1345.00 754.00" xmlns="http://www.w3.org/2000/svg" xmlns:xlink="http://www.w3.org/1999/xlink">
<g id="graph0" class="graph" transform="scale(1 1) rotate(0) translate(4 750)">
<title>test</title>
<polygon fill="white" stroke="none" points="-4,4 -4,-750 1341,-750 1341,4 -4,4"/>
<!-- node1 -->
<g id="node1" class="node"><title>node1</title>
<polygon fill="white" stroke="black" points="849,-0.5 849,-91.5 1002,-91.5 1002,-0.5 849,-0.5"/>
<text text-anchor="middle" x="925.5" y="-76.3" font-family="Times,serif" font-size="14.00">sqms_answer</text>
<polyline fill="none" stroke="black" points="849,-68.5 1002,-68.5 "/>
<text text-anchor="start" x="857" y="-53.3" font-family="Times,serif" font-size="14.00">&#45; sqms_answer_id</text>
<text text-anchor="start" x="857" y="-38.3" font-family="Times,serif" font-size="14.00">&#45; answer</text>
<text text-anchor="start" x="857" y="-23.3" font-family="Times,serif" font-size="14.00">&#45; correct</text>
<text text-anchor="start" x="857" y="-8.3" font-family="Times,serif" font-size="14.00">&#45; sqms_question_id</text>
</g>
<!-- node2 -->
<g id="node2" class="node"><title>node2</title>
<polygon fill="white" stroke="black" points="1109.5,-609.5 1109.5,-745.5 1261.5,-745.5 1261.5,-609.5 1109.5,-609.5"/>
<text text-anchor="middle" x="1185.5" y="-730.3" font-family="Times,serif" font-size="14.00">sqms_history</text>
<polyline fill="none" stroke="black" points="1109.5,-722.5 1261.5,-722.5 "/>
<text text-anchor="start" x="1117.5" y="-707.3" font-family="Times,serif" font-size="14.00">&#45; sqms_history_id</text>
<text text-anchor="start" x="1117.5" y="-692.3" font-family="Times,serif" font-size="14.00">&#45; sqms_users_login</text>
<text text-anchor="start" x="1117.5" y="-677.3" font-family="Times,serif" font-size="14.00">&#45; timestamp</text>
<text text-anchor="start" x="1117.5" y="-662.3" font-family="Times,serif" font-size="14.00">&#45; table_name</text>
<text text-anchor="start" x="1117.5" y="-647.3" font-family="Times,serif" font-size="14.00">&#45; column_name</text>
<text text-anchor="start" x="1117.5" y="-632.3" font-family="Times,serif" font-size="14.00">&#45; value_OLD</text>
<text text-anchor="start" x="1117.5" y="-617.3" font-family="Times,serif" font-size="14.00">&#45; value_NEW</text>
</g>
<!-- node3 -->
<g id="node3" class="node"><title>node3</title>
<polygon fill="white" stroke="black" points="479,-639.5 479,-715.5 636,-715.5 636,-639.5 479,-639.5"/>
<text text-anchor="middle" x="557.5" y="-700.3" font-family="Times,serif" font-size="14.00">sqms_language</text>
<polyline fill="none" stroke="black" points="479,-692.5 636,-692.5 "/>
<text text-anchor="start" x="487" y="-677.3" font-family="Times,serif" font-size="14.00">&#45; sqms_language_id</text>
<text text-anchor="start" x="487" y="-662.3" font-family="Times,serif" font-size="14.00">&#45; language</text>
<text text-anchor="start" x="487" y="-647.3" font-family="Times,serif" font-size="14.00">&#45; language_short</text>
</g>
<!-- node4 -->
<g id="node4" class="node"><title>node4</title>
<polygon fill="white" stroke="black" points="620.5,-128.5 620.5,-324.5 868.5,-324.5 868.5,-128.5 620.5,-128.5"/>
<text text-anchor="middle" x="744.5" y="-309.3" font-family="Times,serif" font-size="14.00">sqms_question</text>
<polyline fill="none" stroke="black" points="620.5,-301.5 868.5,-301.5 "/>
<text text-anchor="start" x="628.5" y="-286.3" font-family="Times,serif" font-size="14.00">&#45; sqms_question_id</text>
<text text-anchor="start" x="628.5" y="-271.3" font-family="Times,serif" font-size="14.00">&#45; sqms_language_id</text>
<text text-anchor="start" x="628.5" y="-256.3" font-family="Times,serif" font-size="14.00">&#45; sqms_question_state_id</text>
<text text-anchor="start" x="628.5" y="-241.3" font-family="Times,serif" font-size="14.00">&#45; question</text>
<text text-anchor="start" x="628.5" y="-226.3" font-family="Times,serif" font-size="14.00">&#45; author</text>
<text text-anchor="start" x="628.5" y="-211.3" font-family="Times,serif" font-size="14.00">&#45; version</text>
<text text-anchor="start" x="628.5" y="-196.3" font-family="Times,serif" font-size="14.00">&#45; id_external</text>
<text text-anchor="start" x="628.5" y="-181.3" font-family="Times,serif" font-size="14.00">&#45; sqms_question_id_predecessor</text>
<text text-anchor="start" x="628.5" y="-166.3" font-family="Times,serif" font-size="14.00">&#45; sqms_question_id_successor</text>
<text text-anchor="start" x="628.5" y="-151.3" font-family="Times,serif" font-size="14.00">&#45; sqms_question_type_id</text>
<text text-anchor="start" x="628.5" y="-136.3" font-family="Times,serif" font-size="14.00">&#45; sqms_topic_id</text>
</g>
<!-- node3&#45;&gt;node4 -->
<g id="edge1" class="edge"><title>node3&#45;&gt;node4</title>
<path fill="none" stroke="black" d="M636.294,-645.133C667.566,-628.513 700.541,-604.827 719.5,-573 742.704,-534.048 747.247,-421.126 747.061,-334.88"/>
<polygon fill="black" stroke="black" points="750.561,-334.752 747.018,-324.767 743.561,-334.782 750.561,-334.752"/>
</g>
<!-- node11 -->
<g id="node11" class="node"><title>node11</title>
<polygon fill="white" stroke="black" points="255,-361.5 255,-572.5 500,-572.5 500,-361.5 255,-361.5"/>
<text text-anchor="middle" x="377.5" y="-557.3" font-family="Times,serif" font-size="14.00">sqms_syllabus</text>
<polyline fill="none" stroke="black" points="255,-549.5 500,-549.5 "/>
<text text-anchor="start" x="263" y="-534.3" font-family="Times,serif" font-size="14.00">&#45; sqms_syllabus_id</text>
<text text-anchor="start" x="263" y="-519.3" font-family="Times,serif" font-size="14.00">&#45; name</text>
<text text-anchor="start" x="263" y="-504.3" font-family="Times,serif" font-size="14.00">&#45; sqms_state_id</text>
<text text-anchor="start" x="263" y="-489.3" font-family="Times,serif" font-size="14.00">&#45; version</text>
<text text-anchor="start" x="263" y="-474.3" font-family="Times,serif" font-size="14.00">&#45; sqms_topic_id</text>
<text text-anchor="start" x="263" y="-459.3" font-family="Times,serif" font-size="14.00">&#45; owner</text>
<text text-anchor="start" x="263" y="-444.3" font-family="Times,serif" font-size="14.00">&#45; sqms_language_id</text>
<text text-anchor="start" x="263" y="-429.3" font-family="Times,serif" font-size="14.00">&#45; sqms_syllabus_id_predecessor</text>
<text text-anchor="start" x="263" y="-414.3" font-family="Times,serif" font-size="14.00">&#45; sqms_syllabus_id_successor</text>
<text text-anchor="start" x="263" y="-399.3" font-family="Times,serif" font-size="14.00">&#45; validity_period_from</text>
<text text-anchor="start" x="263" y="-384.3" font-family="Times,serif" font-size="14.00">&#45; validity_period_to</text>
<text text-anchor="start" x="263" y="-369.3" font-family="Times,serif" font-size="14.00">&#45; description</text>
</g>
<!-- node3&#45;&gt;node11 -->
<g id="edge2" class="edge"><title>node3&#45;&gt;node11</title>
<path fill="none" stroke="black" d="M525.32,-639.224C510.91,-622.533 493.071,-601.869 474.827,-580.737"/>
<polygon fill="black" stroke="black" points="477.277,-578.219 468.093,-572.937 471.979,-582.794 477.277,-578.219"/>
</g>
<!-- node4&#45;&gt;node1 -->
<g id="edge3" class="edge"><title>node4&#45;&gt;node1</title>
<path fill="none" stroke="black" d="M842.945,-128.415C853.151,-118.349 863.222,-108.418 872.632,-99.138"/>
<polygon fill="black" stroke="black" points="875.364,-101.359 880.027,-91.8451 870.449,-96.3748 875.364,-101.359"/>
</g>
<!-- node5 -->
<g id="node5" class="node"><title>node5</title>
<polygon fill="white" stroke="black" points="636.5,-15.5 636.5,-76.5 830.5,-76.5 830.5,-15.5 636.5,-15.5"/>
<text text-anchor="middle" x="733.5" y="-61.3" font-family="Times,serif" font-size="14.00">sqms_question_reviewer</text>
<polyline fill="none" stroke="black" points="636.5,-53.5 830.5,-53.5 "/>
<text text-anchor="start" x="644.5" y="-38.3" font-family="Times,serif" font-size="14.00">&#45; sqms_users_login</text>
<text text-anchor="start" x="644.5" y="-23.3" font-family="Times,serif" font-size="14.00">&#45; sqms_question_id</text>
</g>
<!-- node4&#45;&gt;node5 -->
<g id="edge4" class="edge"><title>node4&#45;&gt;node5</title>
<path fill="none" stroke="black" d="M738.517,-128.415C737.612,-113.722 736.724,-99.3142 735.953,-86.8014"/>
<polygon fill="black" stroke="black" points="739.443,-86.5374 735.335,-76.7717 732.456,-86.9681 739.443,-86.5374"/>
</g>
<!-- node13 -->
<g id="node13" class="node"><title>node13</title>
<polygon fill="white" stroke="black" points="324.5,-8 324.5,-84 608.5,-84 608.5,-8 324.5,-8"/>
<text text-anchor="middle" x="466.5" y="-68.8" font-family="Times,serif" font-size="14.00">sqms_syllabus_element_question</text>
<polyline fill="none" stroke="black" points="324.5,-61 608.5,-61 "/>
<text text-anchor="start" x="332.5" y="-45.8" font-family="Times,serif" font-size="14.00">&#45; sqms_syllabus_element_question_id</text>
<text text-anchor="start" x="332.5" y="-30.8" font-family="Times,serif" font-size="14.00">&#45; sqms_question_id</text>
<text text-anchor="start" x="332.5" y="-15.8" font-family="Times,serif" font-size="14.00">&#45; sqms_syllabus_element_id</text>
</g>
<!-- node4&#45;&gt;node13 -->
<g id="edge5" class="edge"><title>node4&#45;&gt;node13</title>
<path fill="none" stroke="black" d="M620.377,-134.433C617.065,-132.246 613.768,-130.098 610.5,-128 589.709,-114.653 566.608,-101.118 545.104,-89.0325"/>
<polygon fill="black" stroke="black" points="546.754,-85.9452 536.317,-84.1239 543.34,-92.0564 546.754,-85.9452"/>
</g>
<!-- node6 -->
<g id="node6" class="node"><title>node6</title>
<polygon fill="white" stroke="black" points="913,-429 913,-505 1110,-505 1110,-429 913,-429"/>
<text text-anchor="middle" x="1011.5" y="-489.8" font-family="Times,serif" font-size="14.00">sqms_question_state</text>
<polyline fill="none" stroke="black" points="913,-482 1110,-482 "/>
<text text-anchor="start" x="921" y="-466.8" font-family="Times,serif" font-size="14.00">&#45; sqms_question_state_id</text>
<text text-anchor="start" x="921" y="-451.8" font-family="Times,serif" font-size="14.00">&#45; name</text>
<text text-anchor="start" x="921" y="-436.8" font-family="Times,serif" font-size="14.00">&#45; form_data</text>
</g>
<!-- node6&#45;&gt;node4 -->
<g id="edge6" class="edge"><title>node6&#45;&gt;node4</title>
<path fill="none" stroke="black" d="M974.654,-428.872C954.07,-408.465 927.752,-382.918 903.5,-361 892.641,-351.187 881.227,-341.128 869.707,-331.148"/>
<polygon fill="black" stroke="black" points="871.983,-328.489 862.126,-324.605 867.409,-333.788 871.983,-328.489"/>
</g>
<!-- node7 -->
<g id="node7" class="node"><title>node7</title>
<polygon fill="white" stroke="black" points="891.5,-181 891.5,-272 1131.5,-272 1131.5,-181 891.5,-181"/>
<text text-anchor="middle" x="1011.5" y="-256.8" font-family="Times,serif" font-size="14.00">sqms_question_state_rules</text>
<polyline fill="none" stroke="black" points="891.5,-249 1131.5,-249 "/>
<text text-anchor="start" x="899.5" y="-233.8" font-family="Times,serif" font-size="14.00">&#45; sqms_question_state_rules_id</text>
<text text-anchor="start" x="899.5" y="-218.8" font-family="Times,serif" font-size="14.00">&#45; sqms_state_id_FROM</text>
<text text-anchor="start" x="899.5" y="-203.8" font-family="Times,serif" font-size="14.00">&#45; sqms_state_id_TO</text>
<text text-anchor="start" x="899.5" y="-188.8" font-family="Times,serif" font-size="14.00">&#45; transistionScript</text>
</g>
<!-- node6&#45;&gt;node7 -->
<g id="edge7" class="edge"><title>node6&#45;&gt;node7</title>
<path fill="none" stroke="black" d="M1011.5,-428.996C1011.5,-389.789 1011.5,-327.454 1011.5,-282.494"/>
<polygon fill="black" stroke="black" points="1015,-282.323 1011.5,-272.323 1008,-282.323 1015,-282.323"/>
</g>
<!-- node8 -->
<g id="node8" class="node"><title>node8</title>
<polygon fill="white" stroke="black" points="518.5,-429 518.5,-505 710.5,-505 710.5,-429 518.5,-429"/>
<text text-anchor="middle" x="614.5" y="-489.8" font-family="Times,serif" font-size="14.00">sqms_question_type</text>
<polyline fill="none" stroke="black" points="518.5,-482 710.5,-482 "/>
<text text-anchor="start" x="526.5" y="-466.8" font-family="Times,serif" font-size="14.00">&#45; sqms_question_type_id</text>
<text text-anchor="start" x="526.5" y="-451.8" font-family="Times,serif" font-size="14.00">&#45; name</text>
<text text-anchor="start" x="526.5" y="-436.8" font-family="Times,serif" font-size="14.00">&#45; description</text>
</g>
<!-- node8&#45;&gt;node4 -->
<g id="edge8" class="edge"><title>node8&#45;&gt;node4</title>
<path fill="none" stroke="black" d="M634.67,-428.996C648.647,-403.353 668.017,-367.818 686.602,-333.72"/>
<polygon fill="black" stroke="black" points="689.849,-335.077 691.562,-324.622 683.702,-331.727 689.849,-335.077"/>
</g>
<!-- node9 -->
<g id="node9" class="node"><title>node9</title>
<polygon fill="white" stroke="black" points="972,-647 972,-708 1091,-708 1091,-647 972,-647"/>
<text text-anchor="middle" x="1031.5" y="-692.8" font-family="Times,serif" font-size="14.00">sqms_role</text>
<polyline fill="none" stroke="black" points="972,-685 1091,-685 "/>
<text text-anchor="start" x="980" y="-669.8" font-family="Times,serif" font-size="14.00">&#45; sqms_role_id</text>
<text text-anchor="start" x="980" y="-654.8" font-family="Times,serif" font-size="14.00">&#45; role_name</text>
</g>
<!-- node10 -->
<g id="node10" class="node"><title>node10</title>
<polygon fill="white" stroke="black" points="1128,-429 1128,-505 1337,-505 1337,-429 1128,-429"/>
<text text-anchor="middle" x="1232.5" y="-489.8" font-family="Times,serif" font-size="14.00">sqms_role_LIAMUSER</text>
<polyline fill="none" stroke="black" points="1128,-482 1337,-482 "/>
<text text-anchor="start" x="1136" y="-466.8" font-family="Times,serif" font-size="14.00">&#45; sqms_role_LIAMUSER_id</text>
<text text-anchor="start" x="1136" y="-451.8" font-family="Times,serif" font-size="14.00">&#45; sqms_role_id</text>
<text text-anchor="start" x="1136" y="-436.8" font-family="Times,serif" font-size="14.00">&#45; sqms_LIAMUSER_id</text>
</g>
<!-- node9&#45;&gt;node10 -->
<g id="edge9" class="edge"><title>node9&#45;&gt;node10</title>
<path fill="none" stroke="black" d="M1060.3,-646.627C1094.12,-611.54 1150.56,-552.998 1189.56,-512.546"/>
<polygon fill="none" stroke="black" points="1192.2,-514.842 1196.62,-505.214 1187.16,-509.984 1192.2,-514.842"/>
</g>
<!-- node17 -->
<g id="node17" class="node"><title>node17</title>
<polygon fill="white" stroke="black" points="766.5,-429 766.5,-505 894.5,-505 894.5,-429 766.5,-429"/>
<text text-anchor="middle" x="830.5" y="-489.8" font-family="Times,serif" font-size="14.00">sqms_topic</text>
<polyline fill="none" stroke="black" points="766.5,-482 894.5,-482 "/>
<text text-anchor="start" x="774.5" y="-466.8" font-family="Times,serif" font-size="14.00">&#45; sqms_topic_id</text>
<text text-anchor="start" x="774.5" y="-451.8" font-family="Times,serif" font-size="14.00">&#45; name</text>
<text text-anchor="start" x="774.5" y="-436.8" font-family="Times,serif" font-size="14.00">&#45; sqms_role_id</text>
</g>
<!-- node9&#45;&gt;node17 -->
<g id="edge10" class="edge"><title>node9&#45;&gt;node17</title>
<path fill="none" stroke="black" d="M988.879,-646.837C962.671,-627.479 929.288,-600.727 903.5,-573 886.848,-555.095 871.012,-533.163 858.373,-513.982"/>
<polygon fill="none" stroke="black" points="861.177,-511.873 852.8,-505.387 855.304,-515.682 861.177,-511.873"/>
</g>
<!-- node12 -->
<g id="node12" class="node"><title>node12</title>
<polygon fill="white" stroke="black" points="291,-151 291,-302 602,-302 602,-151 291,-151"/>
<text text-anchor="middle" x="446.5" y="-286.8" font-family="Times,serif" font-size="14.00">sqms_syllabus_element</text>
<polyline fill="none" stroke="black" points="291,-279 602,-279 "/>
<text text-anchor="start" x="299" y="-263.8" font-family="Times,serif" font-size="14.00">&#45; sqms_syllabus_element_id</text>
<text text-anchor="start" x="299" y="-248.8" font-family="Times,serif" font-size="14.00">&#45; element_order</text>
<text text-anchor="start" x="299" y="-233.8" font-family="Times,serif" font-size="14.00">&#45; severity</text>
<text text-anchor="start" x="299" y="-218.8" font-family="Times,serif" font-size="14.00">&#45; sqms_syllabus_id</text>
<text text-anchor="start" x="299" y="-203.8" font-family="Times,serif" font-size="14.00">&#45; name</text>
<text text-anchor="start" x="299" y="-188.8" font-family="Times,serif" font-size="14.00">&#45; description</text>
<text text-anchor="start" x="299" y="-173.8" font-family="Times,serif" font-size="14.00">&#45; sqms_syllabus_element_id_predecessor</text>
<text text-anchor="start" x="299" y="-158.8" font-family="Times,serif" font-size="14.00">&#45; sqms_syllabus_element_id_successor</text>
</g>
<!-- node11&#45;&gt;node12 -->
<g id="edge11" class="edge"><title>node11&#45;&gt;node12</title>
<path fill="none" stroke="black" d="M407.764,-361.39C412.532,-344.91 417.41,-328.052 422.025,-312.099"/>
<polygon fill="black" stroke="black" points="425.444,-312.873 424.861,-302.294 418.72,-310.928 425.444,-312.873"/>
</g>
<!-- node14 -->
<g id="node14" class="node"><title>node14</title>
<polygon fill="white" stroke="black" points="82,-196 82,-257 273,-257 273,-196 82,-196"/>
<text text-anchor="middle" x="177.5" y="-241.8" font-family="Times,serif" font-size="14.00">sqms_syllabus_reviewer</text>
<polyline fill="none" stroke="black" points="82,-234 273,-234 "/>
<text text-anchor="start" x="90" y="-218.8" font-family="Times,serif" font-size="14.00">&#45; sqms_users_login</text>
<text text-anchor="start" x="90" y="-203.8" font-family="Times,serif" font-size="14.00">&#45; sqms_syllabus_id</text>
</g>
<!-- node11&#45;&gt;node14 -->
<g id="edge12" class="edge"><title>node11&#45;&gt;node14</title>
<path fill="none" stroke="black" d="M289.777,-361.39C260.957,-327.022 230.755,-291.007 208.944,-264.997"/>
<polygon fill="black" stroke="black" points="211.562,-262.672 202.455,-257.259 206.199,-267.17 211.562,-262.672"/>
</g>
<!-- node12&#45;&gt;node13 -->
<g id="edge13" class="edge"><title>node12&#45;&gt;node13</title>
<path fill="none" stroke="black" d="M454.866,-150.834C456.993,-131.847 459.222,-111.954 461.153,-94.7202"/>
<polygon fill="black" stroke="black" points="464.678,-94.6927 462.313,-84.3651 457.722,-93.9132 464.678,-94.6927"/>
</g>
<!-- node15 -->
<g id="node15" class="node"><title>node15</title>
<polygon fill="white" stroke="black" points="53.5,-632 53.5,-723 247.5,-723 247.5,-632 53.5,-632"/>
<text text-anchor="middle" x="150.5" y="-707.8" font-family="Times,serif" font-size="14.00">sqms_syllabus_state</text>
<polyline fill="none" stroke="black" points="53.5,-700 247.5,-700 "/>
<text text-anchor="start" x="61.5" y="-684.8" font-family="Times,serif" font-size="14.00">&#45; sqms_syllabus_state_id</text>
<text text-anchor="start" x="61.5" y="-669.8" font-family="Times,serif" font-size="14.00">&#45; name</text>
<text text-anchor="start" x="61.5" y="-654.8" font-family="Times,serif" font-size="14.00">&#45; value</text>
<text text-anchor="start" x="61.5" y="-639.8" font-family="Times,serif" font-size="14.00">&#45; form_data</text>
</g>
<!-- node15&#45;&gt;node11 -->
<g id="edge14" class="edge"><title>node15&#45;&gt;node11</title>
<path fill="none" stroke="black" d="M199.197,-631.772C216.137,-616.212 235.973,-597.993 256.141,-579.468"/>
<polygon fill="black" stroke="black" points="258.585,-581.976 263.582,-572.634 253.849,-576.821 258.585,-581.976"/>
</g>
<!-- node16 -->
<g id="node16" class="node"><title>node16</title>
<polygon fill="white" stroke="black" points="0,-421.5 0,-512.5 237,-512.5 237,-421.5 0,-421.5"/>
<text text-anchor="middle" x="118.5" y="-497.3" font-family="Times,serif" font-size="14.00">sqms_syllabus_state_rules</text>
<polyline fill="none" stroke="black" points="0,-489.5 237,-489.5 "/>
<text text-anchor="start" x="8" y="-474.3" font-family="Times,serif" font-size="14.00">&#45; sqms_syllabus_state_rules_id</text>
<text text-anchor="start" x="8" y="-459.3" font-family="Times,serif" font-size="14.00">&#45; sqms_state_id_FROM</text>
<text text-anchor="start" x="8" y="-444.3" font-family="Times,serif" font-size="14.00">&#45; sqms_state_id_TO</text>
<text text-anchor="start" x="8" y="-429.3" font-family="Times,serif" font-size="14.00">&#45; transistionScript</text>
</g>
<!-- node15&#45;&gt;node16 -->
<g id="edge15" class="edge"><title>node15&#45;&gt;node16</title>
<path fill="none" stroke="black" d="M143.635,-631.772C138.742,-599.891 132.135,-556.841 126.923,-522.88"/>
<polygon fill="black" stroke="black" points="130.33,-522.008 125.353,-512.655 123.411,-523.07 130.33,-522.008"/>
</g>
<!-- node17&#45;&gt;node4 -->
<g id="edge16" class="edge"><title>node17&#45;&gt;node4</title>
<path fill="none" stroke="black" d="M817.157,-428.996C807.95,-403.462 795.206,-368.12 782.959,-334.155"/>
<polygon fill="none" stroke="black" points="786.205,-332.841 779.521,-324.622 779.62,-335.216 786.205,-332.841"/>
</g>
</g>
</svg>
